<?xml version="1.0" encoding="UTF-8"?>
<svg width="93px" height="24px" viewBox="0 0 93 24" version="1.1" xmlns="http://www.w3.org/2000/svg" xmlns:xlink="http://www.w3.org/1999/xlink">
    <!-- Generator: sketchtool 55.2 (78181) - https://sketchapp.com -->
    <title>B5F9F7BE-A4A6-4362-93D7-C66A80444E30</title>
    <desc>Created with sketchtool.</desc>
    <g id="TozStore---Dashboard" stroke="none" stroke-width="1" fill="none" fill-rule="evenodd">
        <g id="Dashboard/Toz-Store/2/default" transform="translate(-24.000000, -20.000000)" fill="#47B7AB">
            <g id="Header">
                <g id="main-logo" transform="translate(24.000000, 20.000000)">
                    <path d="M31.7857911,12.025344 C31.7857911,15.510528 29.4303797,18.076416 26.0949367,18.239616 L26.0949367,16.25472 C26.0949367,16.130304 26.1467342,16.01856 26.0282278,15.973056 C25.9099177,15.92736 25.8398734,15.957504 25.7533481,16.048704 L21.067443,19.98624 C21.0117215,20.044992 20.9981835,20.123136 21.0011266,20.203392 C21.0040696,20.283648 21.0476266,20.359296 21.1078608,20.414016 L25.8300633,23.810688 C25.9203165,23.892672 25.9240443,23.91456 26.0366646,23.866368 C26.149481,23.818368 26.0947405,23.709312 26.0947405,23.588928 L26.0947405,21.81888 C31.5884114,21.627648 35.8630759,17.358528 35.8630759,11.972544 C35.8630759,9.393024 34.9048228,6.94656 33.0473734,5.0832 C32.9891013,5.02464 32.9418165,4.992 32.8586266,4.992 C32.8537215,4.992 32.8652975,4.992192 32.8603924,4.992384 C32.7721013,4.996416 32.6979367,5.03712 32.6424114,5.104512 L30.2399114,7.362624 C30.1214051,7.4736 30.0493987,7.655808 30.1557405,7.777728 C31.2474114,9.029376 31.7857911,10.53792 31.7857911,12.025344 Z" id="Path"></path>
                    <path d="M78.5547848,2.729856 L76.5862848,2.729856 C75.5026582,2.729856 75.0688544,3.419136 75.670019,4.301376 L82.0126582,13.644096 L82.0126582,20.3424 C82.0126582,20.55456 82.2741962,20.777856 82.4908038,20.777856 L85.4338418,20.777856 C85.6506456,20.777856 85.7405063,20.554368 85.7405063,20.3424 L85.7405063,13.568256 L92.8165506,3.025728 C92.9348608,2.847936 92.8979747,2.729664 92.6811709,2.729664 L89.094,2.729664 C88.8771962,2.729664 88.6070253,2.848704 88.4902848,3.027456 L83.7971203,10.204416 L79.156538,3.034944 C79.0409747,2.855808 78.7713924,2.729856 78.5547848,2.729856 Z" id="Path"></path>
                    <path d="M20.1415633,11.866368 C20.1415633,8.381184 22.3670886,5.815296 25.7025316,5.652096 L25.7025316,7.636992 C25.7025316,7.761408 25.7806203,7.873152 25.8989304,7.918656 C26.0172405,7.964352 26.1522278,7.934208 26.2387532,7.843008 L30.9570316,3.905472 C31.0127532,3.84672 31.0425759,3.768576 31.0394367,3.68832 C31.0364937,3.608064 31.000981,3.532416 30.940943,3.477696 L26.2226646,0.081024 C26.1324114,-0.00096 26.0009557,-0.022848 25.8883354,0.025344 C25.775519,0.073344 25.7025316,0.1824 25.7025316,0.302784 L25.7025316,2.072832 C20.2088608,2.264064 16.0638861,6.533184 16.0638861,11.919168 C16.0638861,14.498688 17.0868861,16.945152 18.9445316,18.808512 C19.003,18.867072 19.0828544,18.899712 19.1660443,18.899712 C19.1709494,18.899712 19.1756582,18.89952 19.1803671,18.899328 C19.2686582,18.895296 19.3510633,18.854592 19.4065886,18.7872 L21.8130127,16.529088 C21.931519,16.418112 21.9407405,16.235904 21.8343987,16.113984 C20.7427278,14.862144 20.1415633,13.353792 20.1415633,11.866368 Z" id="Path"></path>
                    <path d="M38.3452342,5.993856 L47.785519,5.993856 L37.9638165,17.535744 C37.8256899,17.699136 37.6708861,17.977728 37.6708861,18.189888 L37.6708861,20.3424 C37.6708861,20.55456 37.9324241,20.777856 38.1490316,20.777856 L52.668019,20.777856 C52.8848228,20.777856 52.9746835,20.554368 52.9746835,20.342208 C52.9746835,20.04288 52.9746835,19.594944 52.9746835,19.094208 C52.9746835,18.19296 52.1820253,17.513664 51.0983987,17.513664 L42.5626076,17.513664 L52.7653354,5.539008 C52.9046392,5.376576 52.9746835,5.047104 52.9746835,4.835136 L52.9746835,3.062208 C52.9746835,2.850048 52.8848228,2.729664 52.668019,2.729664 L39.9148544,2.729664 C38.8312278,2.729664 37.8670886,3.408768 37.8670886,4.310208 L37.8670886,5.558208 C37.8670886,5.770368 38.1286266,5.993856 38.3452342,5.993856 Z" id="Path"></path>
                    <path d="M59.8527595,3.008064 C59.7203228,2.840256 59.4803671,2.729856 59.2635633,2.729856 C58.9645506,2.729856 58.5211329,2.729856 58.0259177,2.729856 C57.1257405,2.729856 56.3101266,3.537984 56.3101266,4.5984 L56.3101266,20.3424 C56.3101266,20.55456 56.5716646,20.777856 56.7882722,20.777856 L59.5351076,20.777856 C59.7519114,20.777856 59.8417722,20.554368 59.8417722,20.3424 L59.8417722,8.833536 L69.1133228,20.449152 C69.2465443,20.616384 69.5730253,20.777856 69.7898291,20.777856 L72.0920696,20.777856 C72.3088734,20.777856 72.3987342,20.554368 72.3987342,20.3424 L72.3987342,3.0624 C72.3987342,2.85024 72.3088734,2.729856 72.0920696,2.729856 L69.1490316,2.729856 C68.9322278,2.729856 68.6708861,2.85024 68.6708861,3.0624 L68.6708861,14.214144 L59.8527595,3.008064 Z" id="Path"></path>
                    <path d="M0,5.750208 C0,5.962368 0.261537975,6.185664 0.47814557,6.185664 L5.68987342,6.185664 L5.68987342,20.342208 C5.68987342,20.554368 5.95141139,20.777664 6.16801899,20.777664 L9.11105696,20.777664 C9.32786076,20.777664 9.41772152,20.554176 9.41772152,20.342208 L9.41772152,6.185856 L14.8009304,6.185856 C15.0177342,6.185856 15.1075949,5.962368 15.1075949,5.7504 L15.1075949,3.0624 C15.1075949,2.85024 15.0177342,2.729856 14.8009304,2.729856 L2.04776582,2.729856 C0.964139241,2.729856 0,3.451968 0,4.406208 L0,5.750208 Z" id="Path"></path>
                </g>
            </g>
        </g>
    </g>
</svg>